<?xml version="1.0" encoding="UTF-8"?>
<!-- Generator: Adobe Illustrator 15.0.0, SVG Export Plug-In . SVG Version: 6.00 Build 0)  -->
<!DOCTYPE svg PUBLIC "-//W3C//DTD SVG 1.1//EN" "http://www.w3.org/Graphics/SVG/1.1/DTD/svg11.dtd">
<svg version="1.1" id="Layer_1" xmlns="http://www.w3.org/2000/svg" xmlns:xlink="http://www.w3.org/1999/xlink" x="0px" y="0px" width="496px" height="335px" viewBox="0 0 496 335" enable-background="new 0 0 496 335" xml:space="preserve">
<rect x="-1" y="1" fill="#FFFFFF" width="496" height="335"/>
<image overflow="visible" width="522" height="348" xlink:href="508BF058.jpg" transform="matrix(1 0 0 1 523 -428)">
</image>
<rect x="20" y="27" width="7" height="264"/>
<rect x="30" y="27" width="7" height="264"/>
<rect x="40" y="27" width="4" height="264"/>
<rect x="135" y="27" width="21" height="264"/>
<rect x="50" y="27" width="21" height="264"/>
<rect x="172" y="27" width="21" height="264"/>
<rect x="260" y="27" width="21" height="264"/>
<rect x="357" y="27" width="21" height="264"/>
<rect x="440" y="27" width="11" height="264"/>
<rect x="213" y="27" width="15" height="264"/>
<rect x="87" y="27" width="7" height="264"/>
<rect x="105" y="27" width="7" height="264"/>
<rect x="115" y="27" width="7" height="264"/>
<rect x="231" y="27" width="7" height="264"/>
<rect x="240" y="27" width="7" height="264"/>
<rect x="296" y="27" width="7" height="264"/>
<rect x="316" y="27" width="7" height="264"/>
<rect x="325" y="27" width="7" height="264"/>
<rect x="335" y="27" width="7" height="264"/>
<rect x="392" y="27" width="7" height="264"/>
<rect x="411" y="27" width="7" height="264"/>
<rect x="461" y="27" width="4" height="264"/>
<rect x="424" y="27" width="4" height="264"/>
<rect x="432" y="27" width="4" height="264"/>
<rect x="472" y="27" width="4" height="264"/>
<rect x="345" y="27" width="4" height="264"/>
<rect x="249" y="27" width="4" height="264"/>
<rect x="205" y="27" width="4" height="264"/>
<rect x="197" y="27" width="4" height="264"/>
<rect x="158" y="27" width="4" height="264"/>
<rect x="85" y="27" width="6" height="264"/>
<g>
	<g>
		<g>
			<path d="M108.191,237.743c5.167-1.077,11.95-1.723,19.054-1.723c7.644,0,13.134,0.969,17.978,3.768     c4.844,2.476,8.396,7.213,8.396,13.349c0,9.15-6.674,14.964-14.64,17.225v0.322c6.997,2.153,11.411,7.858,11.411,15.825     c0,7.858-4.198,13.456-9.904,17.224c-6.136,4.198-15.286,5.921-27.343,5.921c-8.182,0-14.748-0.538-18.301-1.292L108.191,237.743     z M112.066,297.273c1.83,0.216,3.66,0.216,5.921,0.216c8.397,0,16.04-3.338,16.04-11.411c0-7.213-6.028-9.366-13.241-9.366     h-4.844L112.066,297.273z M118.311,265.409h5.167c8.504,0,14.317-3.66,14.317-9.904c0-5.167-4.198-7.428-10.119-7.428     c-2.691,0-4.952,0.216-6.136,0.431L118.311,265.409z"/>
			<g>
				<path fill="#FFFFFF" d="M110.132,244.987c9.519-1.859,22.444-3.536,31.341,1.296c4.101,2.228,5.347,5.778,4.074,10.207      c-1.034,3.597-5.28,5.626-8.509,6.627c-3.188,0.988-5.561,3.759-5.561,7.19c0,0.107,0,0.215,0,0.322      c0,3.54,2.299,6.17,5.521,7.289c4.84,1.681,6.579,6.192,5.674,11.057c-0.868,4.666-5.049,8.438-9.293,10.209      c-5.792,2.415-12.206,2.814-18.396,2.954c-5.971,0.135-12.275,0.134-18.161-1.013c1.751,3.072,3.503,6.144,5.254,9.216      c4.45-23.54,8.899-47.079,13.349-70.618c1.788-9.458-12.674-13.463-14.47-3.961c-4.45,23.54-8.899,47.079-13.349,70.618      c-0.713,3.772,1.015,8.39,5.254,9.216c9.354,1.822,19.251,1.94,28.723,1.224c8.857-0.671,17.744-2.721,24.895-8.224      c16.236-12.497,14.868-38.066-5.52-45.148c1.84,2.43,3.681,4.859,5.521,7.289c0-0.107,0-0.215,0-0.322      c-1.854,2.397-3.707,4.794-5.561,7.19c7.278-2.257,13.511-6.351,17.367-13.055c4.278-7.438,3.632-17.48-1.376-24.351      c-10.938-15.002-34.766-12.807-50.662-9.701C96.747,232.354,100.693,246.831,110.132,244.987z"/>
				<path fill="#FFFFFF" d="M112.012,304.775c13.267,1.2,30.243-3.385,29.462-19.799c-0.662-13.919-14.489-15.767-25.478-15.767      c-3.157,0-6.671,2.239-7.289,5.521c-1.292,6.854-2.584,13.708-3.875,20.562c-1.783,9.458,12.679,13.464,14.47,3.961      c1.292-6.854,2.584-13.708,3.875-20.562c-2.43,1.84-4.859,3.681-7.289,5.521c1.615,0,3.229,0,4.844,0      c1.663,0,3.108,0.137,4.712,0.559c0.32,0.084,1.152,0.775,0.858,0.049c2.588,6.417-11.521,5.191-14.182,4.95      C102.465,288.898,102.462,303.911,112.012,304.775z"/>
				<path fill="#FFFFFF" d="M118.256,272.911c10.729,0,22.388-1.227,26.427-12.911c2.069-5.984-0.579-13.396-5.978-16.642      c-5.731-3.446-12.74-3.094-19.106-2.095c-2.383,0.374-4.848,2.927-5.294,5.264c-1.077,5.634-2.153,11.268-3.229,16.901      c-0.768,4.016,1.087,8.07,5.254,9.216c3.707,1.018,8.449-1.241,9.215-5.255c1.077-5.634,2.153-11.268,3.229-16.901      c-1.765,1.755-3.529,3.509-5.294,5.264c-0.804,0.082-0.634,0.069,0.508-0.038c1.208-0.109,2.422-0.119,3.633-0.135      c0.911-0.012,2.573,0.201,2.879,0.346c-0.352-0.454-0.226-0.356,0.378,0.292c-0.213-0.206-0.568-0.423-0.585-0.766      c0,0.013-0.335,0.896-0.189,0.729c-1.966,2.232-7.983,1.727-11.739,1.727C108.678,257.907,108.593,272.911,118.256,272.911z"/>
			</g>
		</g>
		<g>
			<path d="M212.606,276.928c0,19.27-13.241,33.372-31.434,33.372c-13.349,0-22.284-8.72-22.284-21.854     c0-18.193,12.703-33.264,31.434-33.264C204.425,255.183,212.606,264.871,212.606,276.928z M174.929,288.231     c0,6.136,3.014,10.227,8.504,10.227c8.289,0,13.133-12.487,13.133-21.423c0-4.844-2.153-10.012-8.289-10.012     C179.342,267.023,174.929,280.05,174.929,288.231z"/>
			<g>
				<path fill="#FFFFFF" d="M205.104,276.874c-0.192,11.159-5.704,21.487-16.821,24.934c-9.775,3.03-21.046-0.645-21.861-11.965      c-0.767-10.656,5.097-21.902,15.38-25.703C192.506,260.184,204.798,264.286,205.104,276.874      c0.235,9.667,15.238,9.775,15.003,0.107c-0.227-9.324-3.821-17.821-11.344-23.531c-7.785-5.909-17.805-6.572-27.111-4.829      c-18.687,3.501-29.952,21.798-30.266,39.771c-0.153,8.729,3.553,17.684,10.526,23.065c7.772,5.999,17.029,6.988,26.501,5.672      c19.603-2.724,31.374-21.603,31.693-40.148C220.274,267.289,205.271,267.22,205.104,276.874z"/>
				<path fill="#FFFFFF" d="M167.427,288.178c0.228,5.902,2.012,11.566,7.05,15.076c4.62,3.219,10.793,3.461,15.818,1.072      c9.736-4.629,13.542-17.266,13.772-27.237c0.284-12.283-11.122-21.164-22.727-15.959      C171.527,265.53,167.645,278.266,167.427,288.178c-0.213,9.693,14.791,9.758,15.003,0.107c0.095-4.305,1.229-8.365,3.521-12.02      c0.457-0.729,1.398-1.688,2.272-1.74c0.383-0.023,0.611-0.438,0.803,1.335c0.485,4.498-1.056,9.283-3.345,13.084      c-1.749,2.903-3.134,2.36-3.251-0.659C182.058,278.634,167.054,278.513,167.427,288.178z"/>
			</g>
		</g>
		<g>
			<path d="M217.231,309.115l14.641-76.432h15.501l-14.64,76.432H217.231z"/>
			<path fill="#FFFFFF" d="M224.466,311.096c4.88-25.478,9.761-50.955,14.641-76.432c-2.43,1.84-4.859,3.681-7.289,5.521     c5.167,0,10.334,0,15.502,0c-2.394-3.161-4.788-6.321-7.181-9.482c-4.88,25.478-9.76,50.955-14.64,76.432     c2.43-1.84,4.859-3.681,7.289-5.521c-5.167,0-10.335,0-15.502,0c-9.687,0-9.772,15.004-0.108,15.004c5.167,0,10.335,0,15.502,0     c3.164,0,6.661-2.24,7.289-5.521c4.88-25.478,9.761-50.955,14.641-76.432c0.896-4.679-2.05-9.482-7.182-9.482     c-5.167,0-10.334,0-15.501,0c-3.164,0-6.661,2.24-7.289,5.521c-4.88,25.478-9.761,50.955-14.641,76.432     C208.185,316.591,222.646,320.595,224.466,311.096z"/>
		</g>
		<g>
			<path d="M289.787,306.101c-6.135,3.122-13.779,4.199-19.699,4.199c-14.965,0-22.715-8.505-22.715-22.284     c0-16.04,11.627-32.726,30.68-32.726c10.658,0,18.301,6.028,18.301,15.824c0,13.349-13.025,18.193-34.232,17.655     c0.107,1.507,0.646,3.875,1.723,5.382c2.045,2.691,5.598,4.091,10.119,4.091c5.705,0,10.549-1.291,14.748-3.337L289.787,306.101z      M276.115,266.593c-7.213,0-11.41,6.029-12.486,10.873c12.164,0.107,18.193-1.507,18.193-6.459     C281.822,268.423,279.668,266.593,276.115,266.593z"/>
			<g>
				<path fill="#FFFFFF" d="M285.989,299.631c-7.897,3.752-25.589,6.732-29.833-3.998c-4.085-10.329,1.006-23.459,9.998-29.427      c6.896-4.578,25.073-5.838,22.537,6.864c-0.612,3.063-3.067,4.832-6.437,6.039c-6.374,2.283-13.402,2.284-20.08,2.158      c-5.379-0.102-7.902,4.757-7.298,9.443c2.401,18.62,25.031,16.481,37.632,10.664c-3.767-2.175-7.533-4.35-11.3-6.523      c0.359,3.731,0.718,7.463,1.076,11.195c0.391,4.065,3.05,7.526,7.448,7.556c3.766,0.024,7.947-3.374,7.556-7.448      c-0.359-3.731-0.718-7.463-1.076-11.195c-0.574-5.968-5.83-9.048-11.3-6.523c-2.9,1.339-6.032,2.048-9.21,2.267      c-3.95,0.271-5.825,0.1-6.338-3.874c-2.433,3.147-4.865,6.296-7.298,9.443c17.244,0.325,38.843-2.54,41.681-23.065      c1.304-9.437-4.479-18.666-12.837-22.653c-9.565-4.563-20.809-3.044-30.078,1.418c-16.728,8.054-25.54,31.428-18.758,48.574      c8.134,20.565,34.417,20.146,51.51,12.025C302.313,308.423,294.672,295.506,285.989,299.631z"/>
				<path fill="#FFFFFF" d="M276.169,259.091c-9.721,0.407-17.41,6.994-19.775,16.395c-1.176,4.676,2.258,9.464,7.182,9.482      c7.17,0.027,17.725,0.305,22.748-5.945c2.663-3.313,3.612-7.247,2.491-11.408C287.277,261.91,281.574,259.375,276.169,259.091      c-9.688-0.51-9.724,14.498-0.107,15.004c0.074,0.004-2.72-3.354-1.271-1.383c-0.483-0.658-0.175-3.168-0.411-2.207      c0.077-0.314,1.606-2.297,0.631-1.309c1.592-1.613-1.386,0.314,0.335-0.307c-3.53,1.275-7.475,1.091-11.663,1.074      c2.394,3.161,4.788,6.321,7.182,9.482c0.646-2.572,2.062-5.221,5.197-5.352C285.708,273.69,285.832,258.687,276.169,259.091z"/>
			</g>
		</g>
		<g>
			<path d="M329.398,242.156l-2.691,14.21h11.303l-2.367,11.842h-11.195l-3.553,17.87c-0.432,2.045-0.861,4.844-0.861,6.674     c0,2.584,1.076,4.414,4.521,4.414c1.291,0,2.906,0,4.197-0.215l-1.721,12.164c-2.047,0.754-5.922,1.185-9.15,1.185     c-9.367,0-13.779-4.737-13.779-11.411c0-2.799,0.322-5.706,1.184-9.797l3.982-20.884h-6.674l2.152-11.842h6.783l1.938-9.903     L329.398,242.156z"/>
			<path fill="#FFFFFF" d="M322.163,240.176c-0.896,4.737-1.794,9.474-2.691,14.21c-0.886,4.679,2.042,9.482,7.182,9.482     c3.768,0,7.535,0,11.303,0c-2.394-3.161-4.788-6.321-7.182-9.482c-0.789,3.947-1.578,7.895-2.367,11.842     c2.43-1.84,4.859-3.681,7.289-5.521c-3.731,0-7.463,0-11.195,0c-3.182,0-6.637,2.241-7.289,5.521     c-1.146,5.767-2.293,11.532-3.438,17.299c-0.867,4.36-1.731,8.773-0.691,13.172c1.685,7.12,9.5,8.427,15.616,7.755     c-2.394-3.161-4.788-6.321-7.182-9.482c-0.573,4.055-1.146,8.109-1.721,12.164c1.765-1.755,3.529-3.509,5.294-5.264     c-3.094,0.929-10.815,2.479-13.027-0.855c-1.649-2.484,0.079-7.957,0.629-10.841c1.271-6.662,2.541-13.324,3.812-19.986     c0.892-4.679-2.046-9.482-7.182-9.482c-2.225,0-4.449,0-6.674,0c2.394,3.161,4.788,6.321,7.182,9.482     c0.717-3.947,1.435-7.895,2.152-11.842c-2.43,1.84-4.859,3.681-7.289,5.521c2.261,0,4.521,0,6.783,0     c3.174,0,6.646-2.241,7.289-5.521c0.646-3.302,1.291-6.603,1.938-9.903c-1.765,1.755-3.529,3.509-5.294,5.264     c5.311-1.436,10.621-2.871,15.932-4.307c9.337-2.523,5.456-17.013-3.883-14.488c-5.311,1.436-10.621,2.871-15.932,4.307     c-2.404,0.649-4.797,2.723-5.294,5.264c-0.646,3.302-1.291,6.603-1.938,9.903c2.43-1.84,4.859-3.681,7.289-5.521     c-2.261,0-4.521,0-6.783,0c-3.14,0-6.692,2.238-7.289,5.521c-0.717,3.947-1.435,7.895-2.152,11.842     c-0.851,4.68,2.016,9.482,7.182,9.482c2.225,0,4.449,0,6.674,0c-2.394-3.161-4.788-6.321-7.182-9.482     c-1.622,8.506-3.533,17.011-4.81,25.576c-1.146,7.692-0.8,16,5.781,21.268c7.046,5.639,17.629,5.792,25.969,3.288     c2.298-0.689,4.93-2.689,5.294-5.264c0.573-4.055,1.146-8.109,1.721-12.164c0.6-4.242-1.855-10.067-7.182-9.482     c-0.936,0.136-1.876,0.205-2.822,0.207c-2.66-0.321-2.143,0.729,1.552,3.149c-0.105-1.599,0.299-3.259,0.607-4.814     c0.341-1.714,0.682-3.429,1.022-5.143c0.839-4.221,1.679-8.44,2.518-12.66c-2.43,1.84-4.859,3.681-7.289,5.521     c3.731,0,7.463,0,11.195,0c3.185,0,6.633-2.242,7.289-5.521c0.789-3.947,1.578-7.895,2.367-11.842     c0.935-4.677-2.078-9.482-7.182-9.482c-3.768,0-7.535,0-11.303,0c2.394,3.161,4.788,6.321,7.182,9.482     c0.896-4.737,1.794-9.474,2.691-14.21C338.425,234.68,323.963,230.674,322.163,240.176z"/>
		</g>
		<g>
			<path d="M392.158,276.928c0,19.27-13.242,33.372-31.434,33.372c-13.35,0-22.285-8.72-22.285-21.854     c0-18.193,12.703-33.264,31.434-33.264C383.977,255.183,392.158,264.871,392.158,276.928z M354.48,288.231     c0,6.136,3.014,10.227,8.504,10.227c8.289,0,13.133-12.487,13.133-21.423c0-4.844-2.152-10.012-8.289-10.012     C358.895,267.023,354.48,280.05,354.48,288.231z"/>
			<g>
				<path fill="#FFFFFF" d="M384.656,276.874c-0.191,11.159-5.704,21.487-16.821,24.934c-9.774,3.03-21.047-0.645-21.862-11.965      c-0.767-10.656,5.098-21.902,15.38-25.703C372.057,260.184,384.351,264.286,384.656,276.874      c0.235,9.667,15.239,9.775,15.004,0.107c-0.228-9.324-3.822-17.822-11.345-23.531c-7.785-5.909-17.806-6.572-27.112-4.829      c-18.687,3.501-29.951,21.798-30.266,39.771c-0.152,8.729,3.554,17.685,10.527,23.065c7.772,5.998,17.029,6.988,26.502,5.672      c19.602-2.725,31.374-21.603,31.693-40.148C399.827,267.289,384.822,267.22,384.656,276.874z"/>
				<path fill="#FFFFFF" d="M346.979,288.178c0.229,5.902,2.013,11.565,7.051,15.076c4.619,3.219,10.792,3.461,15.817,1.072      c9.736-4.629,13.542-17.266,13.772-27.237c0.283-12.282-11.122-21.165-22.728-15.959      C351.079,265.531,347.196,278.267,346.979,288.178c-0.213,9.693,14.792,9.758,15.004,0.107c0.095-4.305,1.229-8.365,3.521-12.02      c0.456-0.728,1.397-1.688,2.271-1.74c0.383-0.023,0.611-0.438,0.802,1.335c0.485,4.498-1.055,9.283-3.344,13.084      c-1.749,2.903-3.134,2.36-3.25-0.659C361.609,278.634,346.605,278.513,346.979,288.178z"/>
			</g>
		</g>
	</g>
</g>
<g>
	<g>
		<g>
			<path d="M108.691,237.461c5.167-1.077,11.95-1.723,19.054-1.723c7.644,0,13.134,0.969,17.978,3.768     c4.844,2.476,8.396,7.213,8.396,13.349c0,9.15-6.674,14.964-14.64,17.225v0.322c6.997,2.153,11.411,7.858,11.411,15.825     c0,7.858-4.198,13.456-9.904,17.224c-6.136,4.198-15.286,5.921-27.343,5.921c-8.182,0-14.748-0.538-18.301-1.292L108.691,237.461     z M112.566,296.991c1.83,0.216,3.66,0.216,5.921,0.216c8.397,0,16.04-3.338,16.04-11.411c0-7.213-6.028-9.366-13.241-9.366     h-4.844L112.566,296.991z M118.811,265.127h5.167c8.504,0,14.317-3.66,14.317-9.904c0-5.167-4.198-7.428-10.119-7.428     c-2.691,0-4.952,0.216-6.136,0.431L118.811,265.127z"/>
		</g>
		<g>
			<path d="M213.106,276.646c0,19.27-13.241,33.372-31.434,33.372c-13.349,0-22.284-8.72-22.284-21.854     c0-18.193,12.703-33.264,31.434-33.264C204.925,254.9,213.106,264.589,213.106,276.646z M175.429,287.949     c0,6.136,3.014,10.227,8.504,10.227c8.289,0,13.133-12.487,13.133-21.423c0-4.844-2.153-10.012-8.289-10.012     C179.842,266.741,175.429,279.768,175.429,287.949z"/>
		</g>
		<g>
			<path d="M217.731,308.833l14.641-76.432h15.503l-14.642,76.432H217.731z"/>
		</g>
		<g>
			<path d="M290.287,305.818c-6.135,3.122-13.779,4.199-19.699,4.199c-14.965,0-22.715-8.505-22.715-22.284     c0-16.04,11.627-32.726,30.68-32.726c10.658,0,18.301,6.028,18.301,15.824c0,13.349-13.025,18.193-34.232,17.655     c0.107,1.507,0.646,3.875,1.723,5.382c2.045,2.691,5.598,4.091,10.119,4.091c5.705,0,10.549-1.291,14.748-3.337L290.287,305.818z      M276.615,266.311c-7.213,0-11.41,6.029-12.486,10.873c12.164,0.107,18.193-1.507,18.193-6.459     C282.322,268.141,280.168,266.311,276.615,266.311z"/>
		</g>
		<g>
			<path d="M329.898,241.874l-2.691,14.21h11.303l-2.367,11.842h-11.195l-3.553,17.87c-0.432,2.045-0.861,4.844-0.861,6.674     c0,2.584,1.076,4.414,4.521,4.414c1.291,0,2.906,0,4.197-0.215l-1.721,12.164c-2.047,0.754-5.922,1.185-9.15,1.185     c-9.367,0-13.779-4.737-13.779-11.411c0-2.799,0.322-5.706,1.184-9.797l3.982-20.884h-6.674l2.152-11.842h6.783l1.938-9.903     L329.898,241.874z"/>
		</g>
		<g>
			<path d="M392.658,276.646c0,19.27-13.242,33.372-31.434,33.372c-13.35,0-22.285-8.72-22.285-21.854     c0-18.193,12.703-33.264,31.434-33.264C384.477,254.9,392.658,264.589,392.658,276.646z M354.98,287.949     c0,6.136,3.014,10.227,8.504,10.227c8.289,0,13.133-12.487,13.133-21.423c0-4.844-2.152-10.012-8.289-10.012     C359.395,266.741,354.98,279.768,354.98,287.949z"/>
		</g>
	</g>
</g>
</svg>